<svg width="20" height="20" viewBox="0 0 20 20" fill="none" xmlns="http://www.w3.org/2000/svg">
<g id="bxl:linkedin">
<path id="Vector" d="M4.15341 5.99725C5.16041 5.99725 5.97674 5.18092 5.97674 4.17392C5.97674 3.16692 5.16041 2.35059 4.15341 2.35059C3.14641 2.35059 2.33008 3.16692 2.33008 4.17392C2.33008 5.18092 3.14641 5.99725 4.15341 5.99725Z" fill="#7E7E7E"/>
<path id="Vector_2" d="M7.69646 7.37927V17.4951H10.8373V12.4926C10.8373 11.1726 11.0856 9.89427 12.7223 9.89427C14.3365 9.89427 14.3565 11.4034 14.3565 12.5759V17.4959H17.499V11.9484C17.499 9.22344 16.9123 7.12927 13.7273 7.12927C12.1981 7.12927 11.1731 7.96844 10.754 8.76261H10.7115V7.37927H7.69646ZM2.57812 7.37927H5.72396V17.4951H2.57812V7.37927Z" fill="#7E7E7E"/>
</g>
</svg>
