<svg width="25" height="24" viewBox="0 0 25 24" fill="none" xmlns="http://www.w3.org/2000/svg">
<path d="M11.934 9.43677C11.8121 9.31055 11.7446 9.1415 11.7461 8.96602C11.7477 8.79055 11.8181 8.62269 11.9421 8.49861C12.0662 8.37453 12.2341 8.30414 12.4095 8.30262C12.585 8.30109 12.7541 8.36855 12.8803 8.49046L16.4501 12.0736C16.4812 12.1047 16.5059 12.1416 16.5228 12.1823C16.5397 12.2229 16.5484 12.2665 16.5484 12.3105C16.5484 12.3545 16.5397 12.3981 16.5228 12.4388C16.5059 12.4794 16.4812 12.5163 16.4501 12.5474L12.8803 16.1292C12.7541 16.2511 12.585 16.3186 12.4095 16.3171C12.2341 16.3155 12.0662 16.2452 11.9421 16.1211C11.8181 15.997 11.7477 15.8291 11.7461 15.6537C11.7446 15.4782 11.8121 15.3091 11.934 15.1829L14.1371 12.969L5.16925 12.9691C4.99175 12.9691 4.82152 12.8985 4.69602 12.773C4.57051 12.6475 4.5 12.4773 4.5 12.2998C4.5 12.1223 4.57051 11.9521 4.69602 11.8266C4.82152 11.7011 4.99175 11.6306 5.16925 11.6306L14.1371 11.6306L11.934 9.43677ZM19.2234 21L10.5232 21C10.3457 21 10.1755 20.9295 10.05 20.804C9.92448 20.6785 9.85397 20.5082 9.85397 20.3308C9.85397 20.1533 9.92448 19.983 10.05 19.8575C10.1755 19.732 10.3457 19.6615 10.5232 19.6615L18.5542 19.6615C18.7317 19.6615 18.9019 19.591 19.0274 19.4655C19.1529 19.34 19.2234 19.1698 19.2234 18.9923L19.2234 5.60735C19.2234 5.42985 19.1529 5.25963 19.0274 5.13412C18.9019 5.00861 18.7317 4.9381 18.5542 4.9381L10.1886 4.9381C10.0111 4.9381 9.84087 4.86759 9.71536 4.74208C9.58985 4.61658 9.51934 4.44635 9.51934 4.26886C9.51934 4.09136 9.58985 3.92113 9.71536 3.79563C9.84087 3.67012 10.0111 3.59961 10.1886 3.59961L19.2234 3.59961C19.5784 3.59961 19.9188 3.74063 20.1699 3.99164C20.4209 4.24266 20.5619 4.58311 20.5619 4.9381L20.5619 19.6615C20.5619 20.0165 20.4209 20.3569 20.1699 20.608C19.9188 20.859 19.5784 21 19.2234 21Z" fill="#1D2122"/>
</svg>
