<svg width="109" height="46" viewBox="0 0 109 46" fill="none" xmlns="http://www.w3.org/2000/svg">
<path d="M19.3818 29.2598C19.3818 31.4512 18.5905 33.1777 17.0078 34.4395C15.4362 35.7012 13.2448 36.332 10.4336 36.332C7.84375 36.332 5.55273 35.8451 3.56055 34.8711V30.0898C5.19857 30.8203 6.58203 31.335 7.71094 31.6338C8.85091 31.9326 9.89128 32.082 10.832 32.082C11.9609 32.082 12.8242 31.8662 13.4219 31.4346C14.0306 31.0029 14.335 30.361 14.335 29.5088C14.335 29.0329 14.2021 28.6123 13.9365 28.2471C13.6709 27.8708 13.278 27.5111 12.7578 27.168C12.2487 26.8249 11.2028 26.277 9.62012 25.5244C8.13704 24.8271 7.02474 24.1576 6.2832 23.5156C5.54167 22.8737 4.94954 22.1266 4.50684 21.2744C4.06413 20.4222 3.84277 19.4261 3.84277 18.2861C3.84277 16.139 4.56771 14.4512 6.01758 13.2227C7.47852 11.9941 9.49284 11.3799 12.0605 11.3799C13.3223 11.3799 14.5231 11.5293 15.6631 11.8281C16.8141 12.127 18.015 12.5475 19.2656 13.0898L17.6055 17.0908C16.3105 16.5596 15.237 16.1888 14.3848 15.9785C13.5436 15.7682 12.7135 15.6631 11.8945 15.6631C10.9206 15.6631 10.1735 15.89 9.65332 16.3438C9.13314 16.7975 8.87305 17.3896 8.87305 18.1201C8.87305 18.5739 8.97819 18.9723 9.18848 19.3154C9.39876 19.6475 9.73079 19.974 10.1846 20.2949C10.6494 20.6048 11.7396 21.1693 13.4551 21.9883C15.724 23.0729 17.279 24.1631 18.1201 25.2588C18.9613 26.3434 19.3818 27.6771 19.3818 29.2598ZM23.7812 36V11.7285H28.9277V36H23.7812ZM35.0371 36V11.7285H40.1836V31.75H50.0283V36H35.0371ZM73.7852 36H67.9414L61.583 25.7734L59.4082 27.334V36H54.2617V11.7285H59.4082V22.835L61.4336 19.9795L68.0078 11.7285H73.7188L65.252 22.4697L73.7852 36ZM76.8398 36V11.7285H81.9863V36H76.8398ZM102.074 36H88.0957V11.7285H102.074V15.9453H93.2422V21.2744H101.46V25.4912H93.2422V31.75H102.074V36Z" fill="#FFFFFF"/>
<rect x="103" y="29" width="6" height="7" fill="#FFAA17"/>
</svg>
