<svg width="24" height="24" viewBox="0 0 24 24" fill="none" xmlns="http://www.w3.org/2000/svg">
<g id="maki:cross">
<path id="Vector" d="M7.78914 6.29452L11.9997 10.5051L16.1885 6.31634C16.2811 6.21786 16.3925 6.13908 16.5162 6.08472C16.6399 6.03036 16.7734 6.00154 16.9085 6C17.1978 6 17.4752 6.11493 17.6798 6.3195C17.8844 6.52407 17.9993 6.80152 17.9993 7.09083C18.0019 7.22457 17.977 7.35742 17.9264 7.48122C17.8758 7.60502 17.8003 7.71717 17.7048 7.81078L13.4615 11.9996L17.7048 16.2429C17.8846 16.4188 17.99 16.657 17.9993 16.9083C17.9993 17.1976 17.8844 17.4751 17.6798 17.6796C17.4752 17.8842 17.1978 17.9991 16.9085 17.9991C16.7695 18.0049 16.6308 17.9817 16.5012 17.931C16.3716 17.8803 16.254 17.8032 16.1558 17.7046L11.9997 13.494L7.80005 17.6937C7.70788 17.7889 7.59777 17.8649 7.47607 17.9173C7.35438 17.9698 7.22351 17.9976 7.09101 17.9991C6.8017 17.9991 6.52424 17.8842 6.31967 17.6796C6.1151 17.4751 6.00018 17.1976 6.00018 16.9083C5.99763 16.7746 6.02245 16.6417 6.07309 16.5179C6.12374 16.3941 6.19915 16.282 6.2947 16.1884L10.538 11.9996L6.2947 7.75624C6.11492 7.58035 6.00949 7.34217 6.00018 7.09083C6.00018 6.80152 6.1151 6.52407 6.31967 6.3195C6.52424 6.11493 6.8017 6 7.09101 6C7.35281 6.00327 7.6037 6.10908 7.78914 6.29452Z" fill="#1D2122"/>
</g>
</svg>
