<svg width="24" height="24" viewBox="0 0 24 24" fill="none" xmlns="http://www.w3.org/2000/svg">
<g id="radix-icons:magnifying-glass">
<path id="Vector" fill-rule="evenodd" clip-rule="evenodd" d="M15.2192 10.8721C15.2192 11.574 15.0809 12.2691 14.8123 12.9176C14.5437 13.5661 14.15 14.1553 13.6536 14.6517C13.1573 15.148 12.568 15.5418 11.9195 15.8104C11.271 16.079 10.576 16.2172 9.87401 16.2172C9.17207 16.2172 8.47701 16.079 7.8285 15.8104C7.17999 15.5418 6.59074 15.148 6.09439 14.6517C5.59805 14.1553 5.20432 13.5661 4.9357 12.9176C4.66708 12.2691 4.52882 11.574 4.52882 10.8721C4.52882 9.45443 5.09198 8.09486 6.09439 7.09244C7.09681 6.09002 8.45638 5.52687 9.87401 5.52687C11.2916 5.52687 12.6512 6.09002 13.6536 7.09244C14.656 8.09486 15.2192 9.45443 15.2192 10.8721ZM14.1639 16.2417C12.7916 17.338 11.0516 17.8673 9.30121 17.7208C7.55085 17.5744 5.92301 16.7632 4.75201 15.454C3.58101 14.1448 2.95574 12.437 3.00462 10.6811C3.0535 8.92535 3.77281 7.2549 5.01483 6.01288C6.25685 4.77086 7.9273 4.05154 9.6831 4.00266C11.4389 3.95379 13.1468 4.57905 14.456 5.75005C15.7652 6.92105 16.5763 8.54889 16.7228 10.2993C16.8693 12.0496 16.34 13.7896 15.2436 15.162L19.5778 19.4946C19.6488 19.5656 19.7051 19.6499 19.7436 19.7427C19.782 19.8354 19.8018 19.9348 19.8018 20.0352C19.8018 20.1356 19.782 20.2351 19.7436 20.3278C19.7051 20.4206 19.6488 20.5049 19.5778 20.5759C19.5068 20.6469 19.4225 20.7032 19.3298 20.7416C19.237 20.78 19.1376 20.7998 19.0372 20.7998C18.9368 20.7998 18.8374 20.78 18.7446 20.7416C18.6518 20.7032 18.5676 20.6469 18.4966 20.5759L14.1654 16.2417H14.1639Z" fill="#7E7E7E"/>
</g>
</svg>
