<svg width="0" height="0" class="hidden"><symbol fill="none" xmlns="http://www.w3.org/2000/svg" viewBox="0 0 24 24" id="ep_arrow-down"><g id="ep:arrow-down"><path id="Vector" d="M9.11695 7.7833L13.2745 12.0484L9.11695 16.3134C9.04252 16.3896 9.00085 16.4919 9.00085 16.5984C9.00085 16.705 9.04252 16.8073 9.11695 16.8835C9.15311 16.9204 9.19626 16.9497 9.24388 16.9697C9.2915 16.9897 9.34264 17 9.39429 17C9.44595 17 9.49709 16.9897 9.54471 16.9697C9.59233 16.9497 9.63548 16.9204 9.67163 16.8835L14.0954 12.3462C14.1731 12.2665 14.2166 12.1596 14.2166 12.0484C14.2166 11.9371 14.1731 11.8302 14.0954 11.7505L9.67249 7.21326C9.63631 7.1761 9.59305 7.14657 9.54527 7.1264C9.49749 7.10624 9.44616 7.09585 9.39429 7.09585C9.34243 7.09585 9.2911 7.10624 9.24332 7.1264C9.19554 7.14657 9.15228 7.1761 9.1161 7.21326C9.04167 7.28946 9 7.39176 9 7.49828C9 7.6048 9.04252 7.7071 9.11695 7.7833Z" fill="#1D2122"></path></g></symbol></svg>