<svg width="20" height="20" viewBox="0 0 20 20" fill="none" xmlns="http://www.w3.org/2000/svg">
<g id="icon-park-outline:telegram">
<path id="Vector" d="M16.0089 3.46213C16.0089 3.46213 17.6276 2.83088 17.4922 4.3638C17.4476 4.99505 17.043 7.20463 16.728 9.59421L15.6489 16.6734C15.6489 16.6734 15.5589 17.7105 14.7493 17.8909C13.9401 18.0709 12.726 17.2596 12.501 17.0792C12.321 16.9438 9.12846 14.9146 8.00429 13.923C7.68929 13.6521 7.32929 13.1113 8.04929 12.48L12.7705 7.97088C13.3101 7.43005 13.8497 6.16755 11.6014 7.70046L5.30554 11.9838C5.30554 11.9838 4.58596 12.435 3.23721 12.0292L0.313873 11.1271C0.313873 11.1271 -0.765294 10.4509 1.07846 9.77463C5.57554 7.65546 11.1068 5.4913 16.008 3.46213H16.0089Z" fill="#7E7E7E"/>
</g>
</svg>
