<svg width="194" height="110" viewBox="0 0 194 110" fill="none" xmlns="http://www.w3.org/2000/svg">
<g id="Imperativ" clip-path="url(#clip0_1214_276)">
<path id="Vector" d="M0 86.3453H3.85797V110H0V86.3453ZM23.3816 105.106L16.1333 92.7542V110.117H12.1585V86.3453H17.0686L23.3816 97.2987L29.8116 86.3453H34.7217V110H30.63V92.7542L23.3816 105.106ZM46.4126 98.1144H50.1536C50.5044 98.1144 50.8551 97.9979 51.3227 97.8814C51.7903 97.7648 52.1411 97.5318 52.4918 97.1822C52.9594 96.9492 53.1932 96.5996 53.544 96.25C54.0116 95.6674 54.1285 94.8517 54.1285 94.036C54.1285 92.9873 53.8947 92.1716 53.3101 91.589C53.0763 91.1229 52.7256 90.8898 52.258 90.5403C51.9072 90.3072 51.4396 90.1907 51.0889 90.0742C50.6213 89.9576 50.3874 89.9576 50.0367 89.9576H46.2957V98.1144H46.4126ZM46.4126 101.61V110H42.4377V86.3453H50.0367C51.2058 86.3453 52.258 86.4619 53.0763 86.8114C54.0116 87.0445 54.83 87.3941 55.4145 87.8602C56.1159 88.3263 56.7005 89.0254 57.1681 89.8411C57.5188 90.3072 57.8696 90.8898 57.9865 91.589C58.2203 92.1716 58.2203 92.9873 58.2203 93.6864C58.2203 94.3856 58.1034 95.0847 57.9865 95.7839C57.7527 96.483 57.5188 97.1822 57.1681 97.7648C56.8174 98.3475 56.3498 98.8136 55.8821 99.2797C55.4145 99.7458 54.83 100.095 54.1285 100.445C53.544 100.794 52.8425 101.028 52.1411 101.261C51.4396 101.494 50.7382 101.494 49.9198 101.494L46.4126 101.61ZM80.3159 110H65.4686V86.3453H80.3159V89.8411H69.3266V96.017H77.9778V99.6292H69.3266V106.621H80.3159V110ZM92.0068 96.8326H95.8647C96.4493 96.8326 97.0338 96.7161 97.6184 96.4831C98.2029 96.25 98.6705 95.9004 98.9044 95.3178C99.372 94.6186 99.4889 93.9195 99.4889 93.2203C99.4889 92.5212 99.2551 91.9386 98.9044 91.4725C98.2029 90.4237 97.1507 89.9576 95.8647 89.9576H92.0068V96.8326ZM99.372 99.1631C99.8396 99.3962 100.19 99.6292 100.307 99.6292C100.541 99.7458 100.775 99.8623 101.009 100.095C101.243 100.328 101.476 100.678 101.827 101.144C102.061 101.377 102.295 101.727 102.412 102.193C102.645 102.542 102.762 102.892 102.996 103.358C103.113 103.824 103.347 104.174 103.581 104.756C103.814 105.222 104.048 105.805 104.282 106.388C104.399 106.621 104.633 107.087 104.75 107.436C104.984 107.903 105.217 108.252 105.334 108.602C105.451 108.835 105.685 109.184 105.802 109.417C105.919 109.65 106.153 109.883 106.503 110.117H101.71C101.359 109.301 101.126 108.718 100.892 108.485C100.775 108.252 100.541 107.786 100.19 107.087C99.9565 106.388 99.4889 105.689 99.2551 104.989C99.0213 104.29 98.6705 103.708 98.3198 103.008C97.8522 101.96 97.1507 101.377 96.4493 101.028C95.6309 100.678 94.8126 100.445 93.8773 100.445H91.8899V110.117H87.915V86.3453H95.9816C97.6184 86.3453 99.0213 86.5784 100.073 87.161C101.126 87.6271 102.061 88.3263 102.645 89.4915C103.23 90.5403 103.581 91.7055 103.581 92.9873C103.581 94.3856 103.347 95.4343 102.645 96.3665C102.412 96.8326 102.178 97.1822 101.827 97.4153C101.593 97.6483 101.359 97.9979 101.009 98.1144C100.775 98.3475 100.424 98.5805 99.9565 98.8136C99.8396 98.9301 99.6058 99.0466 99.372 99.1631ZM132.691 110H128.248L126.729 105.222H118.311L116.791 110H112.349L119.948 86.3453H124.975L132.691 110ZM125.559 101.61L122.52 91.9386L119.48 101.61H125.559ZM156.657 86.3453V90.0742H149.759V110H145.785V90.1907H138.887V86.4619H156.657V86.3453ZM163.672 86.3453H167.529V110H163.672V86.3453ZM175.012 86.3453H179.571L184.364 104.174L189.041 86.3453H193.6L186.819 110H181.792L175.012 86.3453Z" fill="#999999"/>
<path id="Vector_2" fill-rule="evenodd" clip-rule="evenodd" d="M0 80.7521H3.85797V84.5974H0V80.7521ZM163.788 80.7521H167.646V84.5974H163.788V80.7521Z" fill="#999999"/>
<g id="Group">
<path id="Vector_3" d="M48.7508 81.4513H28.6426V0H48.7508V81.4513Z" fill="#999999"/>
<path id="Vector_4" d="M72.0154 81.4513H51.9072V0H72.0154V81.4513Z" fill="#999999"/>
<path id="Vector_5" d="M95.2803 81.4513H75.0552V0H95.1634V81.4513H95.2803Z" fill="#999999"/>
<path id="Vector_6" d="M118.545 81.4513H98.3198V0H118.428V81.4513H118.545Z" fill="#999999"/>
<path id="Vector_7" d="M141.81 81.4513H121.585V0H141.693V81.4513H141.81Z" fill="#999999"/>
<path id="Vector_8" d="M165.075 81.4513H144.966V0H165.075V81.4513Z" fill="#999999"/>
</g>
</g>
<defs>
<clipPath id="clip0_1214_276">
<rect width="193.6" height="110" fill="white"/>
</clipPath>
</defs>
</svg>
